# xmcd
#
# Track frame offsets: 
#        150
#        16390
#        32312
#        45303
#        57676
#        73386
#        91123
#
# Disc length: 1419 seconds
#
# Revision: 0
# Processed by: cddbd v1.5.1PL2 Copyright (c) Steve Scherf et al.
# Submitted via: ExactAudioCopy v0.95a5
#
DISCID=54058907
DTITLE=Taylor Hicks - Under The Radar
DYEAR=2005
DGENRE=Soul
TTITLE0=The Deal
TTITLE1=Hell Of A Day
TTITLE2=Hold On To Your Love
TTITLE3=Heart And Soul
TTITLE4=West Texas Sky
TTITLE5=Soul Thing
TTITLE6=My Friend
EXTD=
EXTT0=
EXTT1=
EXTT2=
EXTT3=
EXTT4=
EXTT5=
EXTT6=
PLAYORDER=
